<?xml version="1.0" encoding="UTF-8" standalone="no"?>
<svg width="205px" height="218px" viewBox="0 0 205 218" version="1.1" xmlns="http://www.w3.org/2000/svg" xmlns:xlink="http://www.w3.org/1999/xlink" xmlns:sketch="http://www.bohemiancoding.com/sketch/ns">
    <!-- Generator: Sketch 3.4.2 (15857) - http://www.bohemiancoding.com/sketch -->
    <title>password</title>
    <desc>Created with Sketch.</desc>
    <defs>
        <linearGradient x1="50%" y1="-37.3565888%" x2="50%" y2="142.369077%" id="linearGradient-1">
            <stop stop-color="#F4F039" offset="0%"></stop>
            <stop stop-color="#E18C06" offset="100%"></stop>
        </linearGradient>
    </defs>
    <g id="Page-1" stroke="none" stroke-width="1" fill="none" fill-rule="evenodd" sketch:type="MSPage">
        <g id="password" sketch:type="MSLayerGroup" fill="url(#linearGradient-1)">
            <path d="M89.2455,139.8638 L114.7815,139.8638 L111.9975,113.8998 C111.7745,111.8218 112.5645,109.7638 114.1205,108.3678 C117.9585,104.9258 120.1605,99.9998 120.1605,94.8548 C120.1605,84.8478 112.0195,76.7078 102.0135,76.7078 C92.0075,76.7078 83.8665,84.8478 83.8665,94.8548 C83.8665,99.9998 86.0675,104.9258 89.9065,108.3678 C91.4615,109.7638 92.2515,111.8218 92.0295,113.8998 L89.2455,139.8638 Z M122.0155,152.8638 L82.0115,152.8638 C80.1665,152.8638 78.4095,152.0798 77.1765,150.7078 C75.9435,149.3358 75.3515,147.5048 75.5485,145.6708 L78.7735,115.5858 C73.7135,109.9078 70.8665,102.5248 70.8665,94.8548 C70.8665,77.6798 84.8385,63.7078 102.0135,63.7078 C119.1875,63.7078 133.1605,77.6798 133.1605,94.8548 C133.1605,102.5248 130.3135,109.9088 125.2525,115.5858 L128.4785,145.6708 C128.6755,147.5048 128.0835,149.3358 126.8505,150.7078 C125.6175,152.0798 123.8605,152.8638 122.0155,152.8638 L122.0155,152.8638 Z" id="Fill-1" sketch:type="MSShapeGroup"></path>
            <path d="M179.9355,173.1836 C178.6065,173.1836 177.2655,172.7776 176.1095,171.9336 C173.2095,169.8176 172.5745,165.7516 174.6905,162.8516 C199.5015,128.8516 196.9915,81.4756 168.7215,50.2026 C140.4505,18.9286 93.5695,11.6646 57.2445,32.9286 C55.0355,34.2226 52.2715,34.0976 50.1875,32.6116 C48.1025,31.1246 47.0845,28.5536 47.5875,26.0426 L51.6765,5.6176 C52.3815,2.0976 55.8015,-0.1884 59.3255,0.5196 C62.8455,1.2246 65.1275,4.6496 64.4235,8.1696 L62.9345,15.6056 C102.3745,-0.8044 149.0875,9.0976 178.3645,41.4846 C210.7425,77.3026 213.6135,131.5666 185.1915,170.5146 C183.9185,172.2586 181.9405,173.1836 179.9355,173.1836" id="Fill-5" sketch:type="MSShapeGroup"></path>
            <path d="M145.6147,218 C145.0357,218 144.4477,217.922 143.8627,217.759 C140.4057,216.793 138.3857,213.207 139.3507,209.75 L140.6067,205.255 C128.3657,210.167 115.4477,212.568 102.5947,212.568 C74.2967,212.57 46.2897,200.942 26.3587,178.893 C-6.0193,143.076 -8.8903,88.811 19.5317,49.864 C21.6477,46.964 25.7147,46.329 28.6137,48.445 C31.5137,50.561 32.1487,54.627 30.0327,57.527 C5.2207,91.526 7.7317,138.902 36.0017,170.175 C64.2727,201.45 111.1547,208.714 147.4787,187.45 C149.7637,186.112 152.6337,186.295 154.7307,187.912 C156.8287,189.529 157.7357,192.257 157.0227,194.809 L151.8717,213.248 C151.0697,216.12 148.4577,218 145.6147,218" id="Fill-3" sketch:type="MSShapeGroup"></path>
        </g>
    </g>
</svg>